<svg xmlns="http://www.w3.org/2000/svg" width="36.332" height="36.332" viewBox="0 0 36.332 36.332">
  <g id="cash" transform="translate(0 0)">
    <g id="Group_180" data-name="Group 180" transform="translate(0 0)">
      <path id="Path_134" data-name="Path 134" d="M33.96,27.361,41.6,29.371l1.928-7.644-1.468-.386-1.253,4.768a18.162,18.162,0,1,0,.245,18.714l-1.312-.712a16.675,16.675,0,1,1,.074-16.764l-5.472-1.453Z" transform="translate(-7.2 -17.5)" fill="#fff"/>
    </g>
    <g id="Group_182" data-name="Group 182" transform="translate(13.599 8.052)">
      <g id="Group_181" data-name="Group 181">
        <path id="Path_135" data-name="Path 135" d="M198.867,134.308a.864.864,0,0,0,.867-.867v-.927a3.642,3.642,0,0,0-3.641-3.641h-.059v-1.906a.868.868,0,0,0-1.735,0V128.9a4.1,4.1,0,0,0,.4,8.186h.927a2.373,2.373,0,1,1,0,4.745h-1.387a1.905,1.905,0,0,1-1.906-1.906.867.867,0,1,0-1.735,0,3.642,3.642,0,0,0,3.641,3.641h.059v1.906a.868.868,0,1,0,1.735,0v-1.928a4.1,4.1,0,0,0-.4-8.186h-.927a2.373,2.373,0,1,1,0-4.745h1.387A1.9,1.9,0,0,1,198,132.514v.927A.869.869,0,0,0,198.867,134.308Z" transform="translate(-190.6 -126.1)" fill="#fff"/>
      </g>
    </g>
  </g>
</svg>
