<svg xmlns="http://www.w3.org/2000/svg" width="28.835" height="28.753" viewBox="0 0 28.835 28.753">
  <g id="level" transform="translate(0 0)">
    <path id="Path_148" data-name="Path 148" d="M176.556,272.547h-5.748a1.437,1.437,0,0,0-1.437,1.437v9.579A1.437,1.437,0,0,0,170.808,285h5.748a1.437,1.437,0,0,0,1.437-1.437v-9.579A1.437,1.437,0,0,0,176.556,272.547Zm.479,11.016a.479.479,0,0,1-.479.479h-5.748a.479.479,0,0,1-.479-.479v-9.579a.479.479,0,0,1,.479-.479h5.748a.479.479,0,0,1,.479.479Zm0,0" transform="translate(-159.231 -256.248)" fill="#fff"/>
    <path id="Path_149" data-name="Path 149" d="M344.556,192.547h-5.748a1.437,1.437,0,0,0-1.437,1.437v14.369a1.437,1.437,0,0,0,1.437,1.437h5.748a1.437,1.437,0,0,0,1.437-1.437V193.984A1.437,1.437,0,0,0,344.556,192.547Zm.479,15.806a.479.479,0,0,1-.479.479h-5.748a.479.479,0,0,1-.479-.479V193.984a.479.479,0,0,1,.479-.479h5.748a.479.479,0,0,1,.479.479Zm0,0" transform="translate(-317.172 -181.037)" fill="#fff"/>
    <path id="Path_150" data-name="Path 150" d="M8.556,232.547H2.808a1.437,1.437,0,0,0-1.437,1.437v11.974A1.437,1.437,0,0,0,2.808,247.4H8.556a1.437,1.437,0,0,0,1.437-1.437V233.984A1.437,1.437,0,0,0,8.556,232.547Zm.479,13.411a.479.479,0,0,1-.479.479H2.808a.479.479,0,0,1-.479-.479V233.984a.479.479,0,0,1,.479-.479H8.556a.479.479,0,0,1,.479.479Zm0,0" transform="translate(-1.289 -218.643)" fill="#fff"/>
    <path id="Path_151" data-name="Path 151" d="M22.115,9.421a2.379,2.379,0,0,0-.4-1.319l3.391-3.391a2.4,2.4,0,1,0-.677-.677L21.039,7.425a2.378,2.378,0,0,0-2.98.278L12.826,4.125a2.4,2.4,0,1,0-4.238.323L3.854,8.9a2.436,2.436,0,1,0,.654.7L9.243,5.148a2.374,2.374,0,0,0,3.038-.236L17.513,8.49a2.395,2.395,0,1,0,4.6.931Zm4.311-8.142a1.437,1.437,0,1,1-1.437,1.437A1.437,1.437,0,0,1,26.426,1.278ZM2.477,12.294a1.437,1.437,0,1,1,1.437-1.437A1.437,1.437,0,0,1,2.477,12.294ZM10.62,4.631a1.437,1.437,0,1,1,1.437-1.437A1.437,1.437,0,0,1,10.62,4.631Zm9.1,6.227a1.437,1.437,0,1,1,1.437-1.437A1.437,1.437,0,0,1,19.72,10.858Zm0,0" transform="translate(0 -0.306)" fill="#fff"/>
  </g>
</svg>
