<svg xmlns="http://www.w3.org/2000/svg" width="28.33" height="33.306" viewBox="0 0 28.33 33.306">
  <g id="avatar" transform="translate(0 0)">
    <g id="Group_165" data-name="Group 165" transform="translate(0)">
      <path id="Path_125" data-name="Path 125" d="M144.159,17.946h.221a6.364,6.364,0,0,0,4.863-2.1c2.655-2.993,2.214-8.125,2.166-8.614-.172-3.676-1.91-5.435-3.345-6.256A7.669,7.669,0,0,0,144.352,0h-.117a7.681,7.681,0,0,0-3.711.945c-1.448.821-3.214,2.579-3.386,6.283-.048.49-.49,5.621,2.166,8.614A6.339,6.339,0,0,0,144.159,17.946ZM138.98,7.4c0-.021.007-.041.007-.055.228-4.945,3.738-5.476,5.242-5.476h.083c1.862.041,5.028.8,5.242,5.476a.134.134,0,0,0,.007.055c.007.048.49,4.738-1.7,7.207a4.521,4.521,0,0,1-3.552,1.476h-.069a4.506,4.506,0,0,1-3.545-1.476C138.5,12.153,138.973,7.442,138.98,7.4Z" transform="translate(-130.115)" fill="#fff"/>
      <path id="Path_126" data-name="Path 126" d="M64.4,267.821V267.8c0-.055-.007-.11-.007-.172-.041-1.366-.131-4.559-3.124-5.58l-.069-.021a19.9,19.9,0,0,1-5.725-2.607.931.931,0,1,0-1.069,1.524,21.485,21.485,0,0,0,6.3,2.876c1.607.572,1.786,2.29,1.835,3.862a1.384,1.384,0,0,0,.007.172,12.519,12.519,0,0,1-.145,2.131,25.383,25.383,0,0,1-12.16,2.828,25.53,25.53,0,0,1-12.167-2.835,11.851,11.851,0,0,1-.145-2.131c0-.055.007-.11.007-.172.048-1.573.228-3.29,1.835-3.862a21.684,21.684,0,0,0,6.3-2.876A.931.931,0,1,0,45,259.414a19.687,19.687,0,0,1-5.725,2.607c-.028.007-.048.014-.069.021-2.993,1.028-3.083,4.221-3.124,5.58a1.385,1.385,0,0,1-.007.172v.021a10.577,10.577,0,0,0,.352,3.124.885.885,0,0,0,.359.435c.207.138,5.166,3.3,13.463,3.3s13.256-3.166,13.463-3.3a.923.923,0,0,0,.359-.435A11.1,11.1,0,0,0,64.4,267.821Z" transform="translate(-36.073 -241.364)" fill="#fff"/>
    </g>
  </g>
</svg>
