<svg xmlns="http://www.w3.org/2000/svg" width="31.473" height="37.576" viewBox="0 0 31.473 37.576">
  <g id="money_1_" data-name="money (1)" transform="translate(0 -0.587)">
    <g id="Group_167" data-name="Group 167" transform="translate(7.374 22.365)">
      <g id="Group_166" data-name="Group 166" transform="translate(0)">
        <path id="Path_127" data-name="Path 127" d="M155.369,293.205a.531.531,0,0,0-.969.436,6.845,6.845,0,1,1-1.5-2.129.531.531,0,0,0,.736-.767,7.877,7.877,0,1,0,1.737,2.459Z" transform="translate(-140.264 -288.547)" fill="#fff"/>
      </g>
    </g>
    <g id="Group_169" data-name="Group 169" transform="translate(12.852 24.065)">
      <g id="Group_168" data-name="Group 168">
        <path id="Path_128" data-name="Path 128" d="M218.879,317.626a.531.531,0,0,0,.531-.531v-.567a2.234,2.234,0,0,0-2.232-2.232h-.035v-1.169a.531.531,0,1,0-1.063,0v1.181a2.515,2.515,0,0,0,.248,5.017h.567a1.452,1.452,0,0,1,0,2.9h-.85a1.17,1.17,0,0,1-1.169-1.169.531.531,0,1,0-1.063,0,2.234,2.234,0,0,0,2.232,2.232h.035v1.169a.531.531,0,1,0,1.063,0v-1.181a2.515,2.515,0,0,0-.248-5.018h-.567a1.452,1.452,0,1,1,0-2.9h.85a1.17,1.17,0,0,1,1.169,1.169v.567A.531.531,0,0,0,218.879,317.626Z" transform="translate(-213.814 -312.596)" fill="#fff"/>
      </g>
    </g>
    <g id="Group_171" data-name="Group 171" transform="translate(7.915 0.587)">
      <g id="Group_170" data-name="Group 170">
        <path id="Path_129" data-name="Path 129" d="M162,9.331,157.424,1.4a2.8,2.8,0,0,0-4.847,0L148,9.331a2.8,2.8,0,0,0,2.424,4.2h9.152A2.8,2.8,0,0,0,162,9.331Zm-.921,2.266a1.718,1.718,0,0,1-1.5.868h-9.152a1.736,1.736,0,0,1-1.5-2.6L153.5,1.931a1.736,1.736,0,0,1,3.007,0l4.576,7.931A1.718,1.718,0,0,1,161.079,11.6Z" transform="translate(-147.622 0)" fill="#fff"/>
      </g>
    </g>
    <g id="Group_173" data-name="Group 173" transform="translate(14.983 4.193)">
      <g id="Group_172" data-name="Group 172">
        <path id="Path_130" data-name="Path 130" d="M244.973,48.061a.5.5,0,0,0-.5.5v4.253a.5.5,0,0,0,1,0V48.559A.5.5,0,0,0,244.973,48.061Z" transform="translate(-244.475 -48.061)" fill="#fff"/>
      </g>
    </g>
    <g id="Group_175" data-name="Group 175" transform="translate(14.983 10.734)">
      <g id="Group_174" data-name="Group 174">
        <path id="Path_131" data-name="Path 131" d="M244.973,136.24a.5.5,0,0,0-.5.5v.532a.5.5,0,0,0,1,0v-.532A.5.5,0,0,0,244.973,136.24Z" transform="translate(-244.475 -136.24)" fill="#fff"/>
      </g>
    </g>
    <g id="Group_177" data-name="Group 177" transform="translate(27.874 12.635)">
      <g id="Group_176" data-name="Group 176" transform="translate(0)">
        <path id="Path_132" data-name="Path 132" d="M384.346,124.229a.342.342,0,0,0-.393-.281l-1.472.245a9.093,9.093,0,0,0-1.146-11.428.342.342,0,1,0-.484.482,8.41,8.41,0,0,1,1.154,10.424l-.211-1.265a.342.342,0,0,0-.674.112l.365,2.187a.342.342,0,0,0,.337.286.346.346,0,0,0,.057,0l2.187-.365A.342.342,0,0,0,384.346,124.229Z" transform="translate(-380.751 -112.665)" fill="#fff"/>
      </g>
    </g>
    <g id="Group_179" data-name="Group 179" transform="translate(0 12.595)">
      <g id="Group_178" data-name="Group 178" transform="translate(0)">
        <path id="Path_133" data-name="Path 133" d="M56.048,115.036l-.365-2.552a.342.342,0,0,0-.387-.29l-2.552.365a.342.342,0,0,0,.1.677l1.582-.226a9.092,9.092,0,0,0-.63,11.388.342.342,0,1,0,.555-.4,8.408,8.408,0,0,1,.758-10.719l.265,1.853a.342.342,0,0,0,.677-.1Z" transform="translate(-52.087 -112.191)" fill="#fff"/>
      </g>
    </g>
  </g>
</svg>
